<svg xmlns="http://www.w3.org/2000/svg" height="24" viewBox="0 -960 960 960" width="24"><path d="m354-247 126-76 126 77-33-144 111-96-146-13-58-136-58 135-146 13 111 97-33 143Zm126-28.923L334.769-188.23q-6.385 3.153-11.846 2.538-5.462-.615-10.616-3.769-5.153-3.154-7.846-9.039-2.692-5.884-.461-12.731l38.615-164.384-127.769-110.847q-5.385-4.384-7.116-10.5-1.73-6.115.731-11.73 2.462-5.616 6.616-9.154 4.153-3.539 11.23-4.77l168.616-14.692L460.692-693q2.693-6.616 7.808-9.539t11.5-2.923q6.385 0 11.5 2.923t7.808 9.539l65.769 155.692 168.616 14.692q7.077 1.231 11.23 4.77 4.154 3.538 6.616 9.154 2.461 5.615.731 11.73-1.731 6.116-7.116 10.5L617.385-375.615 656-211.231q2.231 6.847-.461 12.731-2.693 5.885-7.846 9.039-5.154 3.154-10.616 3.769-5.461.615-11.846-2.538L480-275.923ZM480-430Z"/></svg>